<svg version="1.1" id="Layer_1" xmlns="http://www.w3.org/2000/svg" xmlns:xlink="http://www.w3.org/1999/xlink" x="0px" y="0px"
	 width="100%" viewBox="0 0 1024 1024" enable-background="new 0 0 1024 1024" xml:space="preserve">
<path fill="#FAFAFA" opacity="1.000000" stroke="none" 
	d="
M1025.000000,365.000000 
	C1025.000000,585.333313 1025.000000,805.166687 1025.000000,1025.000000 
	C683.666687,1025.000000 342.333344,1025.000000 1.000000,1025.000000 
	C1.000000,683.666687 1.000000,342.333344 1.000000,1.000000 
	C342.333344,1.000000 683.666687,1.000000 1025.000000,1.000000 
	C1025.000000,122.166664 1025.000000,243.333328 1025.000000,365.000000 
M827.821045,927.170105 
	C828.877075,926.737854 829.933167,926.305603 831.713867,925.852051 
	C847.693787,919.281067 863.338928,912.099243 877.365051,901.794006 
	C890.310669,892.282593 897.529236,880.513733 893.877502,863.718933 
	C889.096252,841.729309 884.969788,819.593506 879.943481,797.662231 
	C876.432983,782.344971 871.669556,767.383484 863.534546,753.679138 
	C852.945862,735.841187 837.647522,723.177368 820.277466,712.382019 
	C826.079041,705.745972 832.305847,699.431702 837.611389,692.420227 
	C866.411255,654.360046 887.563538,612.395569 901.283936,566.656311 
	C909.374573,539.684875 914.978943,512.206055 916.768311,484.145325 
	C917.876831,466.760376 917.783203,449.217865 916.916443,431.811432 
	C916.101013,415.436798 914.440369,398.994415 911.614258,382.850952 
	C903.901978,338.796692 889.289124,297.063171 867.477295,257.902252 
	C843.128479,214.186401 811.412109,176.591217 772.953247,144.770981 
	C741.466858,118.719681 706.617554,98.124756 668.651062,82.806526 
	C624.616272,65.039925 578.815552,55.391369 531.506104,53.174469 
	C501.887878,51.786568 472.407593,53.896751 443.089386,58.793499 
	C405.285797,65.107475 369.085144,76.349640 334.551422,92.851837 
	C288.835205,114.697655 248.792953,144.223175 214.503693,181.655975 
	C190.976212,207.340347 170.896927,235.385300 154.581207,266.094482 
	C126.958870,318.084808 111.469841,373.608826 108.228775,432.333435 
	C106.623322,461.422638 107.837128,490.548889 113.116356,519.320557 
	C124.707771,582.493469 149.054428,640.219788 187.620026,691.722412 
	C193.172684,699.137756 199.783356,705.760925 205.297653,713.088562 
	C203.699280,714.250000 202.175598,715.534851 200.491257,716.554199 
	C176.330887,731.176147 159.215942,751.697144 151.638275,778.901306 
	C144.548340,804.354614 138.952347,830.238159 133.242584,856.052673 
	C131.615921,863.407043 130.722244,871.314270 131.571457,878.729858 
	C132.716827,888.731628 140.345932,895.257385 148.026154,900.943787 
	C165.627487,913.975769 185.496887,922.571838 206.703003,930.050964 
	C208.082031,930.477295 209.461075,930.903564 210.893250,931.213806 
	C210.893250,931.213806 210.765701,931.219788 211.263290,931.767334 
	C227.504410,936.400757 243.745514,941.034180 260.748291,945.953552 
	C289.509521,951.245361 318.270752,956.537109 347.856476,961.997070 
	C359.337158,963.335876 370.803436,964.818359 382.302429,965.974976 
	C395.006012,967.252747 407.730469,968.353699 420.462646,969.307556 
	C433.631439,970.294189 446.820404,971.011658 460.924988,971.980957 
	C481.608734,972.269470 502.292511,972.557983 523.652405,972.985229 
	C524.107727,972.938049 524.563049,972.890869 525.941895,972.979553 
	C530.961731,972.935608 535.981506,972.891724 541.920654,972.986694 
	C549.607605,972.608948 557.294556,972.231201 565.729065,971.991882 
	C566.484131,971.940063 567.239136,971.888184 568.899292,971.939941 
	C574.594482,971.575928 580.289612,971.211975 586.648499,970.982605 
	C587.095398,970.937256 587.542297,970.891968 588.877319,970.985474 
	C628.429382,968.220764 667.909363,964.807495 707.507080,957.964233 
	C707.670288,957.906006 707.833557,957.847717 708.797546,957.824768 
	C709.601562,957.614380 710.394409,957.334167 711.211182,957.203552 
	C741.131287,952.418884 770.623840,945.749023 799.613281,936.932617 
	C804.884888,935.329346 809.948486,933.042175 815.025452,931.054321 
	C815.025452,931.054321 815.025757,931.138611 815.806458,931.116699 
	C817.899963,930.430908 819.993530,929.745117 822.017883,929.020752 
	C822.017883,929.020752 822.030701,929.098938 822.749634,929.077698 
	C824.240417,928.449158 825.731140,927.820618 827.104126,927.171265 
	C827.104126,927.171265 827.138550,927.285828 827.821045,927.170105 
z"/>
<path fill="#94CAE5" opacity="1.000000" stroke="none" 
	d="
M205.904388,712.750732 
	C199.783356,705.760925 193.172684,699.137756 187.620026,691.722412 
	C149.054428,640.219788 124.707771,582.493469 113.116356,519.320557 
	C107.837128,490.548889 106.623322,461.422638 108.228775,432.333435 
	C111.469841,373.608826 126.958870,318.084808 154.581207,266.094482 
	C170.896927,235.385300 190.976212,207.340347 214.503693,181.655975 
	C248.792953,144.223175 288.835205,114.697655 334.551422,92.851837 
	C369.085144,76.349640 405.285797,65.107475 443.089386,58.793499 
	C472.407593,53.896751 501.887878,51.786568 531.506104,53.174469 
	C578.815552,55.391369 624.616272,65.039925 668.651062,82.806526 
	C706.617554,98.124756 741.466858,118.719681 772.953247,144.770981 
	C811.412109,176.591217 843.128479,214.186401 867.477295,257.902252 
	C889.289124,297.063171 903.901978,338.796692 911.614258,382.850952 
	C914.440369,398.994415 916.101013,415.436798 916.916443,431.811432 
	C917.783203,449.217865 917.876831,466.760376 916.768311,484.145325 
	C914.978943,512.206055 909.374573,539.684875 901.283936,566.656311 
	C887.563538,612.395569 866.411255,654.360046 837.611389,692.420227 
	C832.305847,699.431702 826.079041,705.745972 819.797424,712.581299 
	C807.817932,707.570679 796.490173,701.934021 784.788513,697.226868 
	C741.035156,679.626709 697.159302,662.330933 653.124512,644.641479 
	C651.749268,643.437683 650.603638,642.479919 649.404541,641.594421 
	C638.874573,633.818909 628.817200,625.610229 624.762878,612.414734 
	C623.063660,606.884583 621.736694,601.240112 620.206360,595.219604 
	C620.019470,583.190979 619.866760,571.590393 619.850342,559.668579 
	C620.454529,558.665344 620.832703,557.895264 621.403198,557.314026 
	C642.631348,535.682556 654.462524,509.348145 660.166443,479.943451 
	C661.386169,473.655731 662.577148,467.362396 663.845764,460.735199 
	C678.258301,464.960968 688.234253,458.435059 695.775879,447.639435 
	C700.591003,440.746765 704.870544,433.248932 708.014832,425.466736 
	C715.264038,407.524750 719.501892,388.952362 714.956604,369.474731 
	C712.715027,359.869171 707.809937,350.298157 696.994995,351.547791 
	C698.154114,342.097961 699.374878,333.097076 700.453491,324.079224 
	C701.826904,312.597321 703.579285,301.130219 704.244568,289.603424 
	C704.829224,279.475037 703.925110,269.270264 704.065002,259.104523 
	C704.277954,243.624344 700.619690,228.898087 695.894714,214.360107 
	C695.379578,212.775040 693.916260,211.498123 692.912964,209.769379 
	C692.610657,208.991287 692.288086,208.522110 691.968506,207.672577 
	C690.645020,204.861801 689.318481,202.431335 687.968750,199.700623 
	C687.599426,198.962616 687.253296,198.524887 686.896118,197.728180 
	C686.383484,196.940323 685.881958,196.511444 685.209351,195.930893 
	C684.728882,195.462601 684.419434,195.145981 684.097900,194.873535 
	C684.085754,194.917709 684.175781,194.900665 684.085327,194.598999 
	C683.370361,193.473770 682.745789,192.650208 682.111938,191.876602 
	C682.102600,191.926559 682.192078,191.878296 682.108887,191.605667 
	C681.672791,190.894165 681.319824,190.455292 680.870850,189.693359 
	C673.861755,180.163239 665.972900,171.996567 655.709839,165.890503 
	C654.338013,165.067825 653.213928,164.452148 652.073669,163.878845 
	C652.057495,163.921219 652.147095,163.907242 651.945190,163.638550 
	C650.513916,162.847946 649.284546,162.326019 648.049927,161.859238 
	C648.044617,161.914368 648.154175,161.898056 647.939148,161.616486 
	C641.824768,159.514343 635.925415,157.693756 629.926392,155.524841 
	C628.285950,151.727966 627.386597,147.756210 625.081909,144.930847 
	C618.657593,137.055115 611.650513,129.654724 605.054260,121.910675 
	C604.756531,121.553596 604.278015,121.352493 603.851440,121.129074 
	C603.903259,121.106750 603.860779,121.211319 603.863770,120.845016 
	C603.131104,120.156830 602.395508,119.834938 601.675171,119.481293 
	C601.690430,119.449547 601.625793,119.421463 601.639709,119.051834 
	C600.664124,118.266357 599.674622,117.850502 598.761475,117.443100 
	C598.837891,117.451546 598.693604,117.399986 598.682739,117.031097 
	C597.683838,116.258904 596.695740,115.855598 595.808777,115.320709 
	C595.909912,115.189125 595.670898,115.419426 595.663330,115.041046 
	C594.380798,114.150764 593.105896,113.638855 591.882568,113.116150 
	C591.934265,113.105354 591.920654,113.210060 591.831604,112.854828 
	C588.290039,107.882355 583.290955,106.583885 577.795044,105.790085 
	C577.087402,105.370934 576.514465,105.224480 575.764221,104.791809 
	C574.717712,104.350563 573.848450,104.195534 572.827881,103.710434 
	C571.100281,102.944893 569.523987,102.509438 567.801758,101.730965 
	C565.755188,100.947617 563.854553,100.507286 561.800171,99.784569 
	C557.383179,98.185783 553.201538,96.272919 548.839844,95.675598 
	C539.386963,94.381073 529.857605,93.322502 520.330322,92.979950 
	C509.805054,92.601517 499.236633,92.890953 488.707214,93.351738 
	C481.887756,93.650169 474.944214,94.106796 468.341644,95.685776 
	C457.716431,98.226738 447.304779,101.681976 436.857025,104.925339 
	C434.791107,105.566681 432.969604,106.995338 430.620056,108.039505 
	C426.279999,107.788071 423.072784,109.026657 420.968750,112.634521 
	C420.965759,112.739838 420.977570,112.950233 420.660858,112.991722 
	C419.583649,113.411644 418.823151,113.790077 417.715820,114.219742 
	C412.684113,116.751724 407.914490,119.085922 403.328308,121.737480 
	C377.605011,136.609787 357.258881,156.794403 342.897278,183.318512 
	C338.764008,192.743546 334.834808,201.893646 330.669678,211.286926 
	C330.005066,213.034943 329.576385,214.539749 329.025513,216.403351 
	C327.391571,223.179108 325.879791,229.596085 324.263062,236.256653 
	C324.177032,236.676041 324.196014,236.851852 324.124817,237.426300 
	C323.528137,240.797638 323.021667,243.770309 322.368866,246.419876 
	C321.962921,245.750092 321.703308,245.403427 321.443695,245.056747 
	C321.346649,245.186127 321.156250,245.323257 321.166229,245.443726 
	C321.373810,247.944504 321.604156,250.443390 321.845764,253.252121 
	C321.512573,254.061523 321.163544,254.561447 320.558868,255.380249 
	C320.210175,265.793823 320.117157,275.888519 320.028137,286.268494 
	C320.302673,287.023956 320.573181,287.494110 320.909790,288.293274 
	C321.014709,289.067535 321.053497,289.512848 320.799866,290.201569 
	C320.900787,295.153870 321.195343,299.873535 321.708374,304.569305 
	C322.744476,314.052673 323.899200,323.523041 325.004761,333.435486 
	C325.431183,336.538391 325.964752,339.192871 326.257599,341.873688 
	C326.625732,345.243469 326.796783,348.634766 326.612518,351.999695 
	C319.164307,350.853973 314.329041,354.125183 311.935242,360.265137 
	C309.731995,365.916382 307.589478,371.935913 307.232117,377.901764 
	C305.795654,401.879822 312.504181,423.920715 325.199371,444.114075 
	C334.559174,459.002075 344.964813,463.577423 360.621002,460.389313 
	C361.420685,464.777191 362.168671,469.173035 363.027679,473.547089 
	C368.341614,500.604889 377.311584,526.094971 394.914124,547.890381 
	C398.131653,551.874268 401.215149,555.966248 404.332703,560.419678 
	C404.657898,569.218567 405.010864,577.606140 405.279053,586.445923 
	C405.374298,610.134888 395.528839,628.303345 377.280731,642.261414 
	C375.877289,643.334900 374.745453,644.763611 373.133179,645.985840 
	C371.994781,646.190125 371.193817,646.392212 370.428864,646.687622 
	C330.593201,662.072449 290.760559,677.465088 250.696045,692.609985 
	C245.741425,694.017822 240.935242,695.473816 236.325470,697.399902 
	C233.415085,698.615784 230.798126,700.533997 228.032806,702.097534 
	C228.016068,702.057861 228.099670,702.078247 227.703476,702.054626 
	C224.562851,703.415405 221.818420,704.799805 219.049393,706.149780 
	C219.024780,706.115295 219.108429,706.102051 218.751801,706.071655 
	C217.631348,706.434204 216.867508,706.827026 216.078857,707.177856 
	C216.054031,707.135925 216.149094,707.114075 215.892365,707.191284 
	C215.441193,707.557922 215.246765,707.847229 215.039215,708.095337 
	C215.026108,708.054138 215.108871,708.079285 214.788330,708.080566 
	C213.991348,708.438599 213.514908,708.795349 213.035706,709.110413 
	C213.032959,709.068726 213.114975,709.084534 212.794556,709.083252 
	C211.996353,709.437134 211.518600,709.792297 211.036560,710.106262 
	C211.032272,710.065063 211.112625,710.085205 210.761139,710.089844 
	C209.865051,710.495483 209.320450,710.896423 208.623001,711.539307 
	C207.614899,712.104370 206.759628,712.427551 205.904388,712.750732 
z"/>
<path fill="#017C97" opacity="1.000000" stroke="none" 
	d="
M653.329407,644.920959 
	C697.159302,662.330933 741.035156,679.626709 784.788513,697.226868 
	C796.490173,701.934021 807.817932,707.570679 819.651306,712.879028 
	C837.647522,723.177368 852.945862,735.841187 863.534546,753.679138 
	C871.669556,767.383484 876.432983,782.344971 879.943481,797.662231 
	C884.969788,819.593506 889.096252,841.729309 893.877502,863.718933 
	C897.529236,880.513733 890.310669,892.282593 877.365051,901.794006 
	C863.338928,912.099243 847.693787,919.281067 831.130615,925.624695 
	C829.411072,926.026855 828.274841,926.656372 827.138550,927.285889 
	C827.138550,927.285828 827.104126,927.171265 826.772827,927.121582 
	C824.971313,927.747620 823.500977,928.423279 822.030701,929.098938 
	C822.030701,929.098938 822.017883,929.020752 821.655396,929.022095 
	C819.203857,929.728455 817.114807,930.433533 815.025757,931.138611 
	C815.025757,931.138611 815.025452,931.054321 814.650391,931.044922 
	C808.013306,932.434509 807.971558,932.441833 806.841492,925.988953 
	C806.357361,923.223999 806.211182,920.398621 805.699097,917.640076 
	C802.831238,902.192688 800.255188,886.678101 796.849548,871.348633 
	C794.923889,862.680969 791.832947,854.236572 788.710022,845.900146 
	C788.069763,844.191101 784.949524,843.411011 782.972412,842.202637 
	C781.982544,844.159241 780.201111,846.086975 780.128723,848.076965 
	C779.566895,863.526917 779.349121,878.989258 778.996216,894.447083 
	C778.681335,908.239380 778.299133,922.030212 778.014099,935.823059 
	C777.931519,939.820679 776.430725,942.190308 772.182861,943.035950 
	C752.560730,946.942078 732.971130,951.014954 713.398376,955.162476 
	C711.497681,955.565247 709.792725,956.891724 707.996887,957.789368 
	C707.833557,957.847717 707.670288,957.906006 706.965210,957.654114 
	C693.008545,959.041992 679.605835,960.844849 666.175415,962.409241 
	C652.048767,964.054626 637.912720,965.665161 623.748413,966.926575 
	C612.692017,967.911133 601.583313,968.300171 590.507141,969.084961 
	C589.630615,969.147095 588.826843,970.235413 587.989197,970.846680 
	C587.542297,970.891968 587.095398,970.937256 585.998352,970.651123 
	C580.398560,970.219299 575.447693,970.031921 570.500427,970.102356 
	C569.656921,970.114319 568.829163,971.230286 567.994141,971.836304 
	C567.239136,971.888184 566.484131,971.940063 565.037842,971.657410 
	C556.565247,971.216919 548.783875,971.110962 540.539062,971.002686 
	C535.056580,971.614868 530.037476,972.229309 525.018372,972.843689 
	C524.563049,972.890869 524.107727,972.938049 523.058594,972.646301 
	C520.568787,971.875793 518.683533,971.138977 516.774719,971.071838 
	C511.728851,970.894714 506.671051,971.092407 501.621124,970.988953 
	C487.744934,970.704773 473.870331,970.342590 459.528046,970.007385 
	C454.732452,969.987305 450.383148,970.240601 446.078949,969.908875 
	C425.965637,968.358582 405.853333,966.772766 385.764191,964.941345 
	C375.242737,963.982178 364.778778,962.405273 354.268158,961.304871 
	C351.900330,961.057068 349.446320,961.632446 347.031982,961.828857 
	C318.270752,956.537109 289.509521,951.245361 260.277039,945.474976 
	C257.371796,944.098328 255.001541,942.772583 252.489517,942.398254 
	C248.272141,941.769653 247.049744,939.322937 246.987686,935.531982 
	C246.691574,917.439392 246.265030,899.348755 246.025635,881.255554 
	C245.882599,870.443970 246.147705,859.625244 245.873871,848.818726 
	C245.818787,846.645325 244.159866,844.512512 243.240402,842.361023 
	C241.033371,843.834106 238.720627,845.177368 236.671631,846.844666 
	C235.859253,847.505798 235.550354,848.856384 235.151184,849.944153 
	C227.642319,870.405029 224.735870,891.900696 221.024719,913.208984 
	C219.960449,919.319763 219.295059,925.499939 218.505890,931.219788 
	C215.645050,931.219788 213.205383,931.219788 210.765701,931.219788 
	C210.765701,931.219788 210.893250,931.213806 210.799896,930.920288 
	C209.145981,930.346069 207.585449,930.065369 206.024918,929.784668 
	C185.496887,922.571838 165.627487,913.975769 148.026154,900.943787 
	C140.345932,895.257385 132.716827,888.731628 131.571457,878.729858 
	C130.722244,871.314270 131.615921,863.407043 133.242584,856.052673 
	C138.952347,830.238159 144.548340,804.354614 151.638275,778.901306 
	C159.215942,751.697144 176.330887,731.176147 200.491257,716.554199 
	C202.175598,715.534851 203.699280,714.250000 205.601013,712.919678 
	C206.759628,712.427551 207.614899,712.104370 208.968292,711.483521 
	C210.015152,710.818970 210.563889,710.452087 211.112640,710.085205 
	C211.112625,710.085205 211.032272,710.065063 211.339462,710.064575 
	C212.136093,709.737610 212.625534,709.411072 213.114990,709.084534 
	C213.114975,709.084534 213.032959,709.068726 213.339050,709.073364 
	C214.133057,708.745117 214.620972,708.412231 215.108871,708.079285 
	C215.108871,708.079285 215.026108,708.054138 215.333130,708.036377 
	C215.809814,707.717041 215.979462,707.415588 216.149109,707.114075 
	C216.149094,707.114075 216.054031,707.135925 216.412628,707.275635 
	C217.550308,706.977600 218.329376,706.539856 219.108429,706.102051 
	C219.108429,706.102051 219.024780,706.115295 219.415405,706.108521 
	C222.570587,704.760620 225.335129,703.419434 228.099670,702.078247 
	C228.099670,702.078247 228.016068,702.057861 228.404602,702.050659 
	C236.171280,698.981323 243.549438,695.919128 250.927582,692.856934 
	C290.760559,677.465088 330.593201,662.072449 370.428864,646.687622 
	C371.193817,646.392212 371.994781,646.190125 373.263672,646.385986 
	C374.966888,650.950562 375.823395,655.223999 377.463715,659.171875 
	C386.806122,681.656616 403.681915,697.372742 424.135406,709.456116 
	C460.598145,730.997437 499.997040,737.288940 541.662781,731.143188 
	C572.345703,726.617310 599.636047,714.621277 622.849548,693.999573 
	C637.787231,680.729736 649.149719,664.992554 653.329407,644.920959 
z"/>
<path fill="#056E8A" opacity="1.000000" stroke="none" 
	d="
M708.397217,957.807068 
	C709.792725,956.891724 711.497681,955.565247 713.398376,955.162476 
	C732.971130,951.014954 752.560730,946.942078 772.182861,943.035950 
	C776.430725,942.190308 777.931519,939.820679 778.014099,935.823059 
	C778.299133,922.030212 778.681335,908.239380 778.996216,894.447083 
	C779.349121,878.989258 779.566895,863.526917 780.128723,848.076965 
	C780.201111,846.086975 781.982544,844.159241 782.972412,842.202637 
	C784.949524,843.411011 788.069763,844.191101 788.710022,845.900146 
	C791.832947,854.236572 794.923889,862.680969 796.849548,871.348633 
	C800.255188,886.678101 802.831238,902.192688 805.699097,917.640076 
	C806.211182,920.398621 806.357361,923.223999 806.841492,925.988953 
	C807.971558,932.441833 808.013306,932.434509 814.691772,931.053162 
	C809.948486,933.042175 804.884888,935.329346 799.613281,936.932617 
	C770.623840,945.749023 741.131287,952.418884 711.211182,957.203552 
	C710.394409,957.334167 709.601562,957.614380 708.397217,957.807068 
z"/>
<path fill="#056E8A" opacity="1.000000" stroke="none" 
	d="
M211.014496,931.493530 
	C213.205383,931.219788 215.645050,931.219788 218.505890,931.219788 
	C219.295059,925.499939 219.960449,919.319763 221.024719,913.208984 
	C224.735870,891.900696 227.642319,870.405029 235.151184,849.944153 
	C235.550354,848.856384 235.859253,847.505798 236.671631,846.844666 
	C238.720627,845.177368 241.033371,843.834106 243.240402,842.361023 
	C244.159866,844.512512 245.818787,846.645325 245.873871,848.818726 
	C246.147705,859.625244 245.882599,870.443970 246.025635,881.255554 
	C246.265030,899.348755 246.691574,917.439392 246.987686,935.531982 
	C247.049744,939.322937 248.272141,941.769653 252.489517,942.398254 
	C255.001541,942.772583 257.371796,944.098328 259.896210,945.331970 
	C243.745514,941.034180 227.504410,936.400757 211.014496,931.493530 
z"/>
<path fill="#086786" opacity="1.000000" stroke="none" 
	d="
M588.433228,970.916138 
	C588.826843,970.235413 589.630615,969.147095 590.507141,969.084961 
	C601.583313,968.300171 612.692017,967.911133 623.748413,966.926575 
	C637.912720,965.665161 652.048767,964.054626 666.175415,962.409241 
	C679.605835,960.844849 693.008545,959.041992 706.710205,957.603271 
	C667.909363,964.807495 628.429382,968.220764 588.433228,970.916138 
z"/>
<path fill="#086786" opacity="1.000000" stroke="none" 
	d="
M347.444214,961.912964 
	C349.446320,961.632446 351.900330,961.057068 354.268158,961.304871 
	C364.778778,962.405273 375.242737,963.982178 385.764191,964.941345 
	C405.853333,966.772766 425.965637,968.358582 446.078949,969.908875 
	C450.383148,970.240601 454.732452,969.987305 459.530457,970.313171 
	C460.000122,971.030823 460.000336,971.438782 460.000549,971.846802 
	C446.820404,971.011658 433.631439,970.294189 420.462646,969.307556 
	C407.730469,968.353699 395.006012,967.252747 382.302429,965.974976 
	C370.803436,964.818359 359.337158,963.335876 347.444214,961.912964 
z"/>
<path fill="#056E8A" opacity="1.000000" stroke="none" 
	d="
M460.462769,971.913879 
	C460.000336,971.438782 460.000122,971.030823 459.997528,970.317017 
	C473.870331,970.342590 487.744934,970.704773 501.621124,970.988953 
	C506.671051,971.092407 511.728851,970.894714 516.774719,971.071838 
	C518.683533,971.138977 520.568787,971.875793 522.720520,972.576965 
	C502.292511,972.557983 481.608734,972.269470 460.462769,971.913879 
z"/>
<path fill="#086786" opacity="1.000000" stroke="none" 
	d="
M541.002441,971.004883 
	C548.783875,971.110962 556.565247,971.216919 564.664062,971.588196 
	C557.294556,972.231201 549.607605,972.608948 541.460205,972.610046 
	C541.000671,971.823914 541.001587,971.414368 541.002441,971.004883 
z"/>
<path fill="#056E8A" opacity="1.000000" stroke="none" 
	d="
M540.539062,971.002686 
	C541.001587,971.414368 541.000671,971.823914 541.000610,972.540588 
	C535.981506,972.891724 530.961731,972.935608 525.480103,972.911621 
	C530.037476,972.229309 535.056580,971.614868 540.539062,971.002686 
z"/>
<path fill="#086786" opacity="1.000000" stroke="none" 
	d="
M568.446716,971.888062 
	C568.829163,971.230286 569.656921,970.114319 570.500427,970.102356 
	C575.447693,970.031921 580.398560,970.219299 585.666504,970.583862 
	C580.289612,971.211975 574.594482,971.575928 568.446716,971.888062 
z"/>
<path fill="#056E8A" opacity="1.000000" stroke="none" 
	d="
M815.416138,931.127686 
	C817.114807,930.433533 819.203857,929.728455 821.690002,929.041382 
	C819.993530,929.745117 817.899963,930.430908 815.416138,931.127686 
z"/>
<path fill="#056E8A" opacity="1.000000" stroke="none" 
	d="
M822.390137,929.088318 
	C823.500977,928.423279 824.971313,927.747620 826.831787,927.131958 
	C825.731140,927.820618 824.240417,928.449158 822.390137,929.088318 
z"/>
<path fill="#056E8A" opacity="1.000000" stroke="none" 
	d="
M206.363953,929.917847 
	C207.585449,930.065369 209.145981,930.346069 210.773315,930.978271 
	C209.461075,930.903564 208.082031,930.477295 206.363953,929.917847 
z"/>
<path fill="#056E8A" opacity="1.000000" stroke="none" 
	d="
M827.479797,927.228027 
	C828.274841,926.656372 829.411072,926.026855 830.768250,925.635315 
	C829.933167,926.305603 828.877075,926.737854 827.479797,927.228027 
z"/>
<path fill="#F9C292" opacity="1.000000" stroke="none" 
	d="
M696.993530,351.989227 
	C707.809937,350.298157 712.715027,359.869171 714.956604,369.474731 
	C719.501892,388.952362 715.264038,407.524750 708.014832,425.466736 
	C704.870544,433.248932 700.591003,440.746765 695.775879,447.639435 
	C688.234253,458.435059 678.258301,464.960968 663.845764,460.735199 
	C662.577148,467.362396 661.386169,473.655731 660.166443,479.943451 
	C654.462524,509.348145 642.631348,535.682556 621.403198,557.314026 
	C620.832703,557.895264 620.454529,558.665344 619.530640,559.719238 
	C616.866333,562.079773 614.588440,563.996948 612.460754,566.068420 
	C595.066711,583.002136 575.748718,597.047180 552.820251,605.597412 
	C531.341431,613.606934 509.311005,615.796936 486.925415,610.399292 
	C460.829834,604.107117 439.245636,589.447144 419.015656,572.504456 
	C414.094116,568.382690 409.243683,564.175964 404.360535,560.008362 
	C401.215149,555.966248 398.131653,551.874268 394.914124,547.890381 
	C377.311584,526.094971 368.341614,500.604889 363.027679,473.547089 
	C362.168671,469.173035 361.420685,464.777191 360.621002,460.389313 
	C344.964813,463.577423 334.559174,459.002075 325.199371,444.114075 
	C312.504181,423.920715 305.795654,401.879822 307.232117,377.901764 
	C307.589478,371.935913 309.731995,365.916382 311.935242,360.265137 
	C314.329041,354.125183 319.164307,350.853973 326.820312,352.222656 
	C328.248474,352.620453 329.028473,352.778137 330.160797,352.997620 
	C336.233521,360.926636 341.953888,368.793915 347.764771,377.029968 
	C348.219696,377.630615 348.584167,377.862427 348.836975,378.051605 
	C348.725342,378.008972 348.616333,378.221680 348.606171,378.536194 
	C348.976593,379.307831 349.357178,379.764984 349.710144,380.183929 
	C349.682465,380.145721 349.634094,380.226715 349.666565,380.588318 
	C351.575775,384.461060 353.414642,387.993744 355.381836,391.453430 
	C355.603851,391.843903 356.549896,391.822662 357.413757,391.666382 
	C357.773438,390.691437 357.959900,390.044128 357.973969,389.393127 
	C358.324066,373.178772 358.687958,356.964539 358.948425,340.748688 
	C358.979095,338.839722 358.423920,336.921387 358.105316,334.596436 
	C358.401611,329.126343 358.732910,324.067230 359.034058,319.003326 
	C359.003937,318.998566 359.024445,319.056000 359.248108,318.966797 
	C359.822693,318.703705 359.933929,318.431793 359.918396,317.729492 
	C360.625092,313.909088 361.218842,310.421051 361.899536,306.613220 
	C362.198120,305.214264 362.409729,304.135193 362.744507,302.791016 
	C362.857727,302.331329 362.847839,302.136749 362.937164,301.584106 
	C363.000458,300.494171 362.964539,299.762299 362.972687,298.805267 
	C363.016785,298.580109 363.047760,298.122284 363.364807,297.936401 
	C365.438416,292.170624 367.194916,286.590759 369.023010,280.827942 
	C369.094604,280.644958 369.070892,280.252716 369.365509,280.060608 
	C371.213440,276.645325 372.766754,273.422180 374.265198,270.155762 
	C374.210358,270.112518 374.166870,270.245270 374.460999,270.200348 
	C374.903046,269.790802 375.051025,269.426178 375.140137,269.060028 
	C375.081268,269.058502 375.107025,269.173431 375.373260,269.006653 
	C376.628632,267.526398 377.617737,266.212952 378.955200,264.825317 
	C380.510651,263.124390 381.717743,261.497681 382.939026,259.911255 
	C382.953186,259.951569 382.868317,259.961517 383.121582,259.860931 
	C383.569672,259.462769 383.764465,259.165192 383.962708,258.917114 
	C383.966187,258.966644 383.867126,258.959900 384.122070,258.856445 
	C384.566315,258.448120 384.755615,258.143219 384.941650,257.886658 
	C384.938385,257.935028 384.846710,257.903473 385.182861,257.906494 
	C385.850037,257.457336 386.181091,257.005188 386.547424,256.567993 
	C386.582642,256.582947 386.620575,256.516388 386.969269,256.576721 
	C388.525513,255.386093 389.733063,254.135101 390.955933,252.924194 
	C390.971252,252.964264 390.889404,252.938431 391.218018,252.930374 
	C391.986664,252.512802 392.426666,252.103271 392.861847,251.762650 
	C392.857025,251.831558 392.737549,251.762222 393.112518,251.815338 
	C395.970245,250.556976 398.452972,249.245468 401.352112,247.959412 
	C419.858612,243.026230 438.540161,243.521317 457.470825,241.996613 
	C466.140320,241.995621 474.343384,242.082565 482.540833,241.907700 
	C484.027710,241.875992 485.491730,240.772049 487.308716,240.084946 
	C488.112610,239.936020 488.574097,239.865234 489.290863,239.871658 
	C489.710632,240.016571 489.875061,240.084259 490.347443,240.412659 
	C494.097534,240.775085 497.539673,240.876801 501.410339,240.983795 
	C506.102875,240.620911 510.418610,240.554230 514.621948,239.832626 
	C533.260925,236.632736 551.893616,233.380005 570.463806,229.809540 
	C574.117249,229.107101 577.484497,226.916122 581.349854,225.262054 
	C587.985962,223.010620 594.302490,221.036591 600.513855,218.773804 
	C607.883789,216.088959 609.973083,216.641602 614.386658,223.155243 
	C615.117310,224.233627 615.622559,225.493011 616.470337,226.459641 
	C629.703491,241.548126 639.918640,258.475647 647.505249,277.298340 
	C647.675659,278.021759 647.783508,278.501617 647.640625,279.229584 
	C649.914978,288.319733 652.440186,297.161743 654.985352,306.223511 
	C655.005310,306.443268 655.031250,306.883789 655.017944,307.325256 
	C656.282593,316.836700 657.560425,325.906677 658.908325,335.207214 
	C658.978333,335.437805 659.028015,335.917236 659.018738,336.391022 
	C659.012756,344.398682 658.922668,351.934692 659.098022,359.464569 
	C659.133057,360.971039 660.179688,362.453949 660.855347,364.410522 
	C661.274048,370.932068 661.597290,376.990845 661.970886,383.472107 
	C663.455200,387.437134 659.222412,391.980408 664.398743,395.632599 
	C670.037659,385.517609 675.486511,375.743561 681.134644,365.757446 
	C681.629578,365.051178 681.925049,364.557007 682.439331,363.975555 
	C682.914612,363.665375 683.032898,363.384277 683.262695,362.848694 
	C684.389648,361.460449 685.266785,360.268555 686.096436,359.060944 
	C686.048828,359.045227 686.035583,359.144531 686.287476,359.039001 
	C686.728882,358.630737 686.918396,358.328064 687.069336,358.027405 
	C687.030884,358.029480 687.051086,358.103882 687.311401,357.963501 
	C688.089050,357.236237 688.606384,356.649323 689.081909,356.051666 
	C689.040100,356.040924 689.034790,356.127136 689.300720,356.039978 
	C689.774475,355.657013 689.982361,355.361206 690.117432,355.072083 
	C690.044678,355.078735 690.081299,355.220184 690.362000,355.132690 
	C690.841248,354.739624 691.039795,354.434052 691.164917,354.144226 
	C691.091492,354.160004 691.163635,354.291748 691.474243,354.233856 
	C691.944336,353.844727 692.103821,353.513519 692.220825,353.286926 
	C692.178284,353.391541 692.388550,353.473999 692.691895,353.473175 
	C693.726562,353.086456 694.457886,352.700562 695.494507,352.286713 
	C696.197754,352.168915 696.595642,352.079071 696.993530,351.989227 
z"/>
<path fill="#48342B" opacity="1.000000" stroke="none" 
	d="
M683.013000,363.045013 
	C683.032898,363.384277 682.914612,363.665375 682.133484,363.965088 
	C681.384338,364.684418 681.159790,365.326965 680.935303,365.969543 
	C675.486511,375.743561 670.037659,385.517609 664.398743,395.632599 
	C659.222412,391.980408 663.455200,387.437134 662.278564,383.183960 
	C662.684753,380.672974 663.001343,378.868286 662.954834,377.073090 
	C662.689026,366.822083 662.391602,356.571198 661.992188,346.324677 
	C661.773560,340.716949 661.405212,335.111603 660.917847,329.521454 
	C660.841492,328.646210 659.769287,327.857819 659.079712,326.770782 
	C659.036560,326.335785 659.071106,326.159210 659.386841,325.697113 
	C659.781555,324.934631 660.073486,324.420441 659.982727,323.986206 
	C657.237610,310.847290 654.473877,297.712097 651.613586,284.598022 
	C651.487793,284.021362 650.425110,283.649048 649.816833,283.147888 
	C649.834839,283.114258 649.907166,283.138428 649.924927,282.769287 
	C649.538513,281.621307 649.134338,280.842438 648.804077,280.064453 
	C648.877869,280.065369 648.836853,280.207306 648.883545,279.865936 
	C648.434326,278.701294 647.938538,277.877991 647.442688,277.054718 
	C639.918640,258.475647 629.703491,241.548126 616.470337,226.459641 
	C615.622559,225.493011 615.117310,224.233627 614.386658,223.155243 
	C609.973083,216.641602 607.883789,216.088959 600.513855,218.773804 
	C594.302490,221.036591 587.985962,223.010620 580.990784,225.343857 
	C574.491577,226.997818 568.717529,228.420364 562.675537,229.576447 
	C553.916077,230.720337 545.410767,232.054993 536.941772,233.589920 
	C534.586914,234.016708 532.339600,235.036835 529.595947,235.904419 
	C525.109253,236.367844 521.069519,236.711594 516.783691,236.770264 
	C508.212372,236.999344 499.883362,237.465622 491.566986,238.097900 
	C490.685303,238.164917 489.877594,239.205505 489.035553,239.794449 
	C488.574097,239.865234 488.112610,239.936020 486.849854,240.021545 
	C481.681976,239.966370 477.315399,239.896439 472.633179,239.564606 
	C466.871094,239.212341 461.423065,239.027679 455.979523,239.117371 
	C454.983521,239.133804 454.005890,240.266861 452.593262,240.965897 
	C450.433929,240.999161 448.701111,240.951004 446.670837,240.614716 
	C432.547577,239.050842 419.058167,241.501678 405.596039,244.109100 
	C404.647461,244.292831 403.880768,245.415680 403.029144,246.063324 
	C403.028809,246.024826 403.100037,246.054138 402.705933,246.038910 
	C400.652252,246.848938 398.992676,247.674225 397.256378,248.451004 
	C397.179657,248.402496 397.306580,248.272705 397.014709,248.280182 
	C396.505280,248.590485 396.287781,248.893311 396.067047,249.141876 
	C396.063843,249.087616 396.169678,249.112503 395.861938,249.086624 
	C395.125458,249.432953 394.696747,249.805161 394.122864,250.421753 
	C393.564331,251.031509 393.150940,251.396881 392.737549,251.762238 
	C392.737549,251.762222 392.857025,251.831558 392.560913,251.822418 
	C391.806335,252.188324 391.347870,252.563385 390.889404,252.938431 
	C390.889404,252.938431 390.971252,252.964264 390.639099,253.027420 
	C389.078156,254.232513 387.849365,255.374435 386.620575,256.516388 
	C386.620575,256.516388 386.582642,256.582947 386.277344,256.614777 
	C385.596954,257.065552 385.221832,257.484528 384.846741,257.903503 
	C384.846710,257.903473 384.938385,257.935028 384.682983,257.985107 
	C384.240753,258.343414 384.053955,258.651642 383.867126,258.959900 
	C383.867126,258.959900 383.966187,258.966644 383.703613,259.010010 
	C383.250092,259.356079 383.059204,259.658783 382.868317,259.961517 
	C382.868317,259.961517 382.953186,259.951569 382.692932,260.015808 
	C382.025360,260.405609 381.618011,260.731140 380.938171,261.156250 
	C380.469788,261.578247 380.273956,261.900665 380.077545,262.142822 
	C380.076996,262.062592 380.235199,262.089600 379.952698,262.178741 
	C379.492584,262.606628 379.315002,262.945374 379.175323,263.295105 
	C379.213226,263.306061 379.227264,263.383728 378.885437,263.381531 
	C377.398102,265.310699 376.252563,267.242065 375.107025,269.173431 
	C375.107025,269.173431 375.081268,269.058502 374.865479,269.152100 
	C374.488770,269.578918 374.327820,269.912109 374.166870,270.245270 
	C374.166870,270.245270 374.210358,270.112518 373.902618,270.204590 
	C372.086884,273.615356 370.578888,276.934052 369.070892,280.252716 
	C369.070892,280.252716 369.094604,280.644958 368.667633,280.878174 
	C366.509705,286.781677 364.778748,292.451996 363.047760,298.122284 
	C363.047760,298.122284 363.016785,298.580109 362.724060,298.970123 
	C362.566864,300.220795 362.702393,301.081482 362.837921,301.942139 
	C362.847839,302.136749 362.857727,302.331329 362.439484,302.865906 
	C361.945068,304.448273 361.878845,305.690643 361.812592,306.933044 
	C361.218842,310.421051 360.625092,313.909088 359.738953,317.850952 
	C359.249786,318.523682 359.109100,318.774109 359.024445,319.056000 
	C359.024445,319.056000 359.003937,318.998566 358.732941,319.268677 
	C356.832275,341.186493 355.202606,362.834229 353.607208,384.026886 
	C352.580597,383.044952 351.107330,381.635834 349.634094,380.226715 
	C349.634094,380.226715 349.682465,380.145721 349.778442,379.842834 
	C349.455078,379.100525 349.035706,378.661102 348.616333,378.221680 
	C348.616333,378.221680 348.725342,378.008972 348.705444,377.755371 
	C348.348480,377.221558 348.011383,376.941376 347.674286,376.661163 
	C341.953888,368.793915 336.233521,360.926636 330.117615,352.576324 
	C329.474274,349.086182 329.226440,346.079102 328.989929,342.610657 
	C328.484406,336.725647 328.008270,331.297821 327.442749,325.879272 
	C325.988556,311.945526 323.595001,298.037750 323.255951,284.078827 
	C322.875305,268.408600 324.336914,252.693649 325.282043,236.750519 
	C326.920349,230.903854 328.343536,225.320038 329.568176,219.693024 
	C329.814545,218.560989 329.307404,217.264969 329.147705,216.044556 
	C329.576385,214.539749 330.005066,213.034943 331.000427,211.138718 
	C335.627747,201.920914 339.696869,193.098373 343.707031,184.249100 
	C343.823730,183.991623 343.317291,183.451767 343.101379,183.043564 
	C357.258881,156.794403 377.605011,136.609787 403.328308,121.737480 
	C407.914490,119.085922 412.684113,116.751724 417.924561,114.459175 
	C419.312561,114.081665 420.145081,113.515953 420.977570,112.950233 
	C420.977570,112.950233 420.965759,112.739838 421.124634,112.677940 
	C421.283478,112.616043 421.396027,112.919640 421.800476,112.940033 
	C423.448822,112.239212 424.692749,111.517990 425.945251,110.852028 
	C425.953796,110.907288 425.842499,110.896278 426.215698,110.920090 
	C427.350952,110.507576 428.113007,110.071236 428.891663,109.712982 
	C428.908234,109.791069 428.751068,109.763145 429.147675,109.843613 
	C430.991669,109.185524 432.439056,108.446960 433.918915,107.764618 
	C433.951385,107.820824 433.826294,107.855614 434.227997,107.903503 
	C435.616638,107.428688 436.603546,106.905983 437.667389,106.398224 
	C437.744293,106.413185 437.791962,106.562454 438.119598,106.688660 
	C438.903595,106.404144 439.359985,105.993431 439.875336,105.638977 
	C439.934326,105.695236 439.806213,105.796074 440.197205,105.857391 
	C441.369324,105.426216 442.150452,104.933716 443.078979,104.295090 
	C443.226379,104.148949 443.628510,104.046181 443.628510,104.046181 
	C443.628510,104.046181 444.036438,104.122894 444.284973,104.389290 
	C450.348755,103.056969 456.164032,101.458252 461.978088,99.904999 
	C461.976868,99.950455 461.887665,99.932770 462.287292,99.962936 
	C464.459595,99.669922 466.232239,99.346741 468.441589,99.024261 
	C473.956543,98.357956 479.019501,97.296349 484.115906,97.099243 
	C498.386719,96.547302 512.671265,96.350830 526.950562,96.018463 
	C529.318237,95.963348 531.686401,95.930199 534.465820,95.936150 
	C538.598999,96.379921 542.320801,96.774445 546.173096,97.354095 
	C546.533936,97.742928 546.796326,97.889008 547.320190,97.980255 
	C547.549561,97.983063 548.005554,98.032692 548.084045,98.401932 
	C556.764832,101.344666 565.355347,103.958817 573.980042,106.455055 
	C575.573242,106.916183 577.304443,106.900696 579.333496,107.156616 
	C583.770203,109.208702 587.845459,111.209373 591.920654,113.210052 
	C591.920654,113.210060 591.934265,113.105354 592.069092,113.388451 
	C593.359619,114.254181 594.515259,114.836815 595.670898,115.419434 
	C595.670898,115.419426 595.909912,115.189125 595.985229,115.561226 
	C596.938293,116.422211 597.815918,116.911095 598.693604,117.399986 
	C598.693604,117.399986 598.837891,117.451546 598.931946,117.690598 
	C599.892578,118.426926 600.759216,118.924202 601.625793,119.421463 
	C601.625793,119.421463 601.690430,119.449547 601.824219,119.714172 
	C602.592285,120.389641 603.226501,120.800484 603.860779,121.211327 
	C603.860779,121.211319 603.903259,121.106750 603.955566,121.355728 
	C604.238342,121.867554 604.526917,122.021538 604.873535,122.066650 
	C611.650513,129.654724 618.657593,137.055115 625.081909,144.930847 
	C627.386597,147.756210 628.285950,151.727966 630.068054,155.875107 
	C636.257629,158.348480 642.205933,160.123276 648.154175,161.898056 
	C648.154175,161.898056 648.044617,161.914368 648.157715,162.210022 
	C649.562927,162.972870 650.855042,163.440063 652.147095,163.907242 
	C652.147095,163.907242 652.057495,163.921219 652.065796,164.214844 
	C653.368530,165.038162 654.663086,165.567856 655.957581,166.097534 
	C665.972900,171.996567 673.861755,180.163239 680.635864,189.871445 
	C681.061890,190.874481 681.626953,191.376389 682.192078,191.878296 
	C682.192078,191.878296 682.102600,191.926559 682.071716,192.255096 
	C682.752502,193.355972 683.464111,194.128311 684.175781,194.900665 
	C684.175781,194.900665 684.085754,194.917709 684.063110,195.247101 
	C684.719849,196.362015 685.399231,197.147522 686.052979,197.939697 
	C686.027344,197.946365 686.053345,197.900330 686.071716,198.223938 
	C686.464844,199.010086 686.839600,199.472641 687.149841,199.926086 
	C687.085327,199.916992 687.135559,199.796783 687.117554,200.135071 
	C687.484131,200.956619 687.868652,201.439865 688.183838,201.925781 
	C688.114502,201.928436 688.147644,201.793625 688.127563,202.132507 
	C688.492432,202.953033 688.877380,203.434662 689.196533,203.924133 
	C689.130737,203.931976 689.155945,203.801865 689.110657,204.185394 
	C689.580261,205.209351 690.095093,205.849792 690.595642,206.580399 
	C690.581360,206.670578 690.399658,206.687790 690.364014,206.972488 
	C690.617615,207.479828 690.906921,207.702484 691.138550,207.918427 
	C691.080933,207.911743 691.126221,207.804840 691.087769,208.208267 
	C691.907471,210.246460 692.765625,211.881226 693.616760,213.619888 
	C693.609741,213.723785 693.418396,213.806107 693.276367,214.195770 
	C695.416199,222.721451 697.698059,230.857483 700.012207,239.205765 
	C700.044556,239.418015 700.046448,239.847397 700.024780,240.270630 
	C700.292542,242.784027 700.581970,244.874191 700.939636,247.182556 
	C701.007812,247.400772 701.045227,247.856476 701.021606,248.333862 
	C700.993225,261.972809 700.998047,275.134369 700.975952,288.295868 
	C700.971069,291.180725 700.870361,294.065430 700.872559,297.390381 
	C700.902893,299.900543 700.874329,301.970490 700.521912,304.242981 
	C699.144592,313.670746 698.091187,322.895996 697.018555,332.355255 
	C696.999390,332.589294 696.865479,333.039398 696.598083,333.317932 
	C696.233215,335.437897 696.135681,337.279388 696.027100,339.435211 
	C696.005127,340.168579 695.994141,340.587585 695.692505,341.271118 
	C695.281616,343.404205 695.161316,345.272766 695.080750,347.438843 
	C695.146362,348.126221 695.172180,348.516083 694.913940,349.064941 
	C694.414612,349.817963 694.199402,350.412048 693.812927,351.267639 
	C693.223938,352.177399 692.806213,352.825684 692.388550,353.473999 
	C692.388550,353.473999 692.178284,353.391541 691.927124,353.334778 
	C691.505127,353.615906 691.334351,353.953827 691.163635,354.291748 
	C691.163635,354.291748 691.091492,354.160004 690.881104,354.211731 
	C690.474243,354.582336 690.277771,354.901276 690.081299,355.220184 
	C690.081299,355.220184 690.044678,355.078735 689.850708,355.157104 
	C689.449402,355.532684 689.242126,355.829926 689.034790,356.127136 
	C689.034790,356.127136 689.040100,356.040924 688.739868,356.072144 
	C687.976746,356.770233 687.513916,357.437073 687.051086,358.103882 
	C687.051086,358.103882 687.030884,358.029480 686.819946,358.135986 
	C686.417847,358.543182 686.226685,358.843842 686.035583,359.144531 
	C686.035583,359.144531 686.048828,359.045227 685.741882,359.069031 
	C684.627625,360.410248 683.820312,361.727631 683.013000,363.045013 
z"/>
<path fill="#F9C392" opacity="1.000000" stroke="none" 
	d="
M653.124512,644.641479 
	C649.149719,664.992554 637.787231,680.729736 622.849548,693.999573 
	C599.636047,714.621277 572.345703,726.617310 541.662781,731.143188 
	C499.997040,737.288940 460.598145,730.997437 424.135406,709.456116 
	C403.681915,697.372742 386.806122,681.656616 377.463715,659.171875 
	C375.823395,655.223999 374.966888,650.950562 373.617889,646.427368 
	C374.745453,644.763611 375.877289,643.334900 377.280731,642.261414 
	C395.528839,628.303345 405.374298,610.134888 405.599518,586.499146 
	C407.639526,587.204651 409.437561,588.129211 410.883240,589.441833 
	C422.797363,600.259766 434.313751,611.542603 446.589813,621.929016 
	C466.865326,639.083740 490.290436,649.369385 517.016602,650.900696 
	C535.245361,651.945190 552.615479,647.520508 569.208374,640.312073 
	C590.909546,630.884583 606.705750,614.509888 620.240540,595.647583 
	C621.736694,601.240112 623.063660,606.884583 624.762878,612.414734 
	C628.817200,625.610229 638.874573,633.818909 649.404541,641.594421 
	C650.603638,642.479919 651.749268,643.437683 653.124512,644.641479 
z"/>
<path fill="#ECAF80" opacity="1.000000" stroke="none" 
	d="
M620.206360,595.219604 
	C606.705750,614.509888 590.909546,630.884583 569.208374,640.312073 
	C552.615479,647.520508 535.245361,651.945190 517.016602,650.900696 
	C490.290436,649.369385 466.865326,639.083740 446.589813,621.929016 
	C434.313751,611.542603 422.797363,600.259766 410.883240,589.441833 
	C409.437561,588.129211 407.639526,587.204651 405.684326,586.046997 
	C405.010864,577.606140 404.657898,569.218567 404.332703,560.419678 
	C409.243683,564.175964 414.094116,568.382690 419.015656,572.504456 
	C439.245636,589.447144 460.829834,604.107117 486.925415,610.399292 
	C509.311005,615.796936 531.341431,613.606934 552.820251,605.597412 
	C575.748718,597.047180 595.066711,583.002136 612.460754,566.068420 
	C614.588440,563.996948 616.866333,562.079773 619.394287,560.040405 
	C619.866760,571.590393 620.019470,583.190979 620.206360,595.219604 
z"/>
<path fill="#9FE1F1" opacity="1.000000" stroke="none" 
	d="
M700.845764,304.040466 
	C700.874329,301.970490 700.902893,299.900543 701.066528,297.020264 
	C701.442627,295.799286 701.885925,295.393250 701.895386,294.977295 
	C702.188110,282.095520 702.544006,269.213287 702.612549,256.329712 
	C702.627563,253.508148 701.595215,250.681030 701.045166,247.856476 
	C701.045227,247.856476 701.007812,247.400772 700.998901,246.762604 
	C700.675476,244.032089 700.360962,241.939743 700.046509,239.847397 
	C700.046448,239.847397 700.044556,239.418015 700.159546,238.796127 
	C697.989075,230.051529 695.703735,221.928818 693.418396,213.806107 
	C693.418396,213.806107 693.609741,213.723785 693.563477,213.287964 
	C693.250305,211.979370 692.983398,211.106583 692.761353,210.195892 
	C692.806274,210.158005 692.892700,210.078293 692.892700,210.078293 
	C693.916260,211.498123 695.379578,212.775040 695.894714,214.360107 
	C700.619690,228.898087 704.277954,243.624344 704.065002,259.104523 
	C703.925110,269.270264 704.829224,279.475037 704.244568,289.603424 
	C703.579285,301.130219 701.826904,312.597321 700.453491,324.079224 
	C699.374878,333.097076 698.154114,342.097961 696.994995,351.547791 
	C696.595642,352.079071 696.197754,352.168915 695.457764,351.945709 
	C695.068909,351.410217 695.022156,351.187744 695.088623,350.631348 
	C695.200562,349.833618 695.199280,349.369812 695.197998,348.905975 
	C695.172180,348.516083 695.146362,348.126221 695.421265,347.210083 
	C695.809082,344.791412 695.896118,342.899017 695.983154,341.006592 
	C695.994141,340.587585 696.005127,340.168579 696.383545,339.233093 
	C696.789185,336.824188 696.827332,334.931793 696.865479,333.039398 
	C696.865479,333.039398 696.999390,332.589294 697.366577,332.137939 
	C698.771057,322.471191 699.808411,313.255829 700.845764,304.040466 
z"/>
<path fill="#9DDEEF" opacity="1.000000" stroke="none" 
	d="
M548.005554,98.032692 
	C548.005554,98.032692 547.549561,97.983063 547.221985,97.749237 
	C546.610474,97.399925 546.326477,97.284454 546.042542,97.168976 
	C542.320801,96.774445 538.598999,96.379921 534.235474,95.588799 
	C511.573547,92.745201 489.715942,93.899620 467.621246,98.101685 
	C465.458832,98.678963 463.673248,99.305862 461.887665,99.932770 
	C461.887665,99.932770 461.976868,99.950455 461.556641,99.922737 
	C455.436432,101.304306 449.736450,102.713600 444.036438,104.122894 
	C444.036438,104.122894 443.628510,104.046181 443.628510,104.046181 
	C443.628510,104.046181 443.226379,104.148949 442.741425,104.403702 
	C441.439728,105.037666 440.622986,105.416878 439.806213,105.796082 
	C439.806213,105.796074 439.934326,105.695236 439.574463,105.680565 
	C438.740417,105.964745 438.266174,106.263596 437.791962,106.562454 
	C437.791962,106.562454 437.744293,106.413185 437.328033,106.401031 
	C435.883270,106.877785 434.854797,107.366699 433.826294,107.855614 
	C433.826294,107.855614 433.951385,107.820824 433.574768,107.820923 
	C432.513947,107.941185 431.829742,108.061348 431.118958,108.150505 
	C431.092346,108.119499 431.035370,108.060928 431.035370,108.060928 
	C432.969604,106.995338 434.791107,105.566681 436.857025,104.925339 
	C447.304779,101.681976 457.716431,98.226738 468.341644,95.685776 
	C474.944214,94.106796 481.887756,93.650169 488.707214,93.351738 
	C499.236633,92.890953 509.805054,92.601517 520.330322,92.979950 
	C529.857605,93.322502 539.386963,94.381073 548.839844,95.675598 
	C553.201538,96.272919 557.383179,98.185783 561.733765,99.865372 
	C561.821045,100.228577 561.690491,100.391998 561.301025,100.331497 
	C556.609558,99.524895 552.307556,98.778793 548.005554,98.032692 
z"/>
<path fill="#3E1F16" opacity="1.000000" stroke="none" 
	d="
M324.997009,236.998169 
	C324.336914,252.693649 322.875305,268.408600 323.255951,284.078827 
	C323.595001,298.037750 325.988556,311.945526 327.442749,325.879272 
	C328.008270,331.297821 328.484406,336.725647 328.637421,342.429565 
	C327.459503,339.472656 326.645416,336.235474 325.898743,332.557861 
	C325.167389,324.185577 324.447144,316.244781 323.544586,308.324738 
	C322.845398,302.189056 321.918152,296.079376 321.092285,289.958130 
	C321.053497,289.512848 321.014709,289.067535 320.967712,287.964691 
	C320.913147,286.867004 320.866791,286.426880 320.888611,285.521606 
	C320.909393,275.058075 320.861969,265.059723 320.814514,255.061371 
	C321.163544,254.561447 321.512573,254.061523 321.920715,252.858917 
	C322.158264,250.351807 322.336700,248.547394 322.515167,246.742981 
	C323.021667,243.770309 323.528137,240.797638 324.321869,237.418365 
	C324.609100,237.011780 325.003479,237.003143 325.001740,237.001572 
	C325.000000,237.000000 324.997009,236.998169 324.997009,236.998169 
z"/>
<path fill="#9FE1F1" opacity="1.000000" stroke="none" 
	d="
M320.799866,290.201569 
	C321.918152,296.079376 322.845398,302.189056 323.544586,308.324738 
	C324.447144,316.244781 325.167389,324.185577 325.692139,332.558777 
	C325.418152,333.000092 325.005035,332.998779 325.005035,332.998779 
	C323.899200,323.523041 322.744476,314.052673 321.708374,304.569305 
	C321.195343,299.873535 320.900787,295.153870 320.799866,290.201569 
z"/>
<path fill="#3C1C14" opacity="1.000000" stroke="none" 
	d="
M342.897278,183.318512 
	C343.317291,183.451767 343.823730,183.991623 343.707031,184.249100 
	C339.696869,193.098373 335.627747,201.920914 331.236328,210.895508 
	C334.834808,201.893646 338.764008,192.743546 342.897278,183.318512 
z"/>
<path fill="#9DDEEF" opacity="1.000000" stroke="none" 
	d="
M325.004761,333.435486 
	C325.005035,332.998779 325.418152,333.000092 325.624725,332.999207 
	C326.645416,336.235474 327.459503,339.472656 328.626099,342.890930 
	C329.226440,346.079102 329.474274,349.086182 329.765259,352.514526 
	C329.028473,352.778137 328.248474,352.620453 327.260681,352.239777 
	C326.796783,348.634766 326.625732,345.243469 326.257599,341.873688 
	C325.964752,339.192871 325.431183,336.538391 325.004761,333.435486 
z"/>
<path fill="#9DDEEF" opacity="1.000000" stroke="none" 
	d="
M250.696045,692.609985 
	C243.549438,695.919128 236.171280,698.981323 228.421356,702.090332 
	C230.798126,700.533997 233.415085,698.615784 236.325470,697.399902 
	C240.935242,695.473816 245.741425,694.017822 250.696045,692.609985 
z"/>
<path fill="#3E1F16" opacity="1.000000" stroke="none" 
	d="
M329.025513,216.403351 
	C329.307404,217.264969 329.814545,218.560989 329.568176,219.693024 
	C328.343536,225.320038 326.920349,230.903854 325.282043,236.750519 
	C324.997009,236.998169 325.000000,237.000000 324.943176,236.808060 
	C324.785522,236.353271 324.612762,236.152252 324.368042,236.013062 
	C325.879791,229.596085 327.391571,223.179108 329.025513,216.403351 
z"/>
<path fill="#9DDEEF" opacity="1.000000" stroke="none" 
	d="
M591.831604,112.854820 
	C587.845459,111.209373 583.770203,109.208702 579.114380,107.036415 
	C578.195740,106.743500 577.967590,106.513306 577.870972,106.147476 
	C577.892639,106.120735 577.929626,106.062775 577.929626,106.062775 
	C583.290955,106.583885 588.290039,107.882355 591.831604,112.854820 
z"/>
<path fill="#3C1C14" opacity="1.000000" stroke="none" 
	d="
M647.939148,161.616486 
	C642.205933,160.123276 636.257629,158.348480 630.167725,156.223434 
	C635.925415,157.693756 641.824768,159.514343 647.939148,161.616486 
z"/>
<path fill="#A7EFFD" opacity="1.000000" stroke="none" 
	d="
M320.558868,255.380249 
	C320.861969,265.059723 320.909393,275.058075 320.689514,285.524170 
	C320.422211,285.991882 320.024109,285.983215 320.024109,285.983215 
	C320.117157,275.888519 320.210175,265.793823 320.558868,255.380249 
z"/>
<path fill="#9DDEEF" opacity="1.000000" stroke="none" 
	d="
M421.396027,112.919647 
	C421.396027,112.919640 421.283478,112.616043 421.127594,112.572617 
	C423.072784,109.026657 426.279999,107.788071 430.620056,108.039505 
	C431.035370,108.060928 431.092346,108.119499 430.929565,108.382446 
	C430.094849,109.017967 429.422943,109.390549 428.751068,109.763138 
	C428.751068,109.763145 428.908234,109.791069 428.555115,109.759209 
	C427.415497,110.116989 426.628998,110.506630 425.842499,110.896271 
	C425.842499,110.896278 425.953796,110.907288 425.582123,110.904526 
	C423.938965,111.574387 422.667511,112.247017 421.396027,112.919647 
z"/>
<path fill="#9DDEEF" opacity="1.000000" stroke="none" 
	d="
M227.703476,702.054626 
	C225.335129,703.419434 222.570587,704.760620 219.440033,706.143005 
	C221.818420,704.799805 224.562851,703.415405 227.703476,702.054626 
z"/>
<path fill="#9FE1F1" opacity="1.000000" stroke="none" 
	d="
M687.991943,200.000885 
	C689.318481,202.431335 690.645020,204.861801 691.943542,207.688324 
	C691.915527,208.084412 691.870544,208.122589 691.679443,208.054993 
	C691.488281,207.987381 691.126221,207.804840 691.126221,207.804840 
	C691.126221,207.804840 691.080933,207.911743 691.095215,207.645432 
	C690.872925,207.148682 690.636292,206.918228 690.399658,206.687790 
	C690.399658,206.687790 690.581360,206.670578 690.534180,206.279114 
	C690.043274,205.192398 689.599609,204.497131 689.155945,203.801865 
	C689.155945,203.801865 689.130737,203.931976 689.142029,203.615234 
	C688.818054,202.796875 688.482849,202.295258 688.147644,201.793640 
	C688.147644,201.793625 688.114502,201.928436 688.127197,201.619507 
	C688.059326,200.905685 687.978760,200.500793 687.922119,200.072571 
	C687.945923,200.049225 687.991943,200.000885 687.991943,200.000885 
z"/>
<path fill="#A7EFFD" opacity="1.000000" stroke="none" 
	d="
M322.368835,246.419876 
	C322.336700,248.547394 322.158264,250.351807 321.904907,252.549438 
	C321.604156,250.443390 321.373810,247.944504 321.166229,245.443726 
	C321.156250,245.323257 321.346649,245.186127 321.443695,245.056747 
	C321.703308,245.403427 321.962921,245.750092 322.368835,246.419876 
z"/>
<path fill="#9DDEEF" opacity="1.000000" stroke="none" 
	d="
M561.887451,100.147766 
	C563.854553,100.507286 565.755188,100.947617 567.750122,101.790413 
	C567.844421,102.192879 567.743896,102.314125 567.391724,102.254776 
	C565.256592,101.594292 563.473511,100.993149 561.690491,100.391998 
	C561.690491,100.391998 561.821045,100.228577 561.887451,100.147766 
z"/>
<path fill="#3C1C14" opacity="1.000000" stroke="none" 
	d="
M655.709839,165.890503 
	C654.663086,165.567856 653.368530,165.038162 652.081909,164.172485 
	C653.213928,164.452148 654.338013,165.067825 655.709839,165.890503 
z"/>
<path fill="#9DDEEF" opacity="1.000000" stroke="none" 
	d="
M567.896057,102.133430 
	C569.523987,102.509438 571.100281,102.944893 572.800476,103.738327 
	C572.924377,104.096291 572.872620,104.154922 572.526245,104.125511 
	C570.701233,103.502106 569.222595,102.908112 567.743896,102.314125 
	C567.743896,102.314125 567.844421,102.192879 567.896057,102.133430 
z"/>
<path fill="#9DDEEF" opacity="1.000000" stroke="none" 
	d="
M595.663330,115.041061 
	C594.515259,114.836815 593.359619,114.254181 592.017456,113.399246 
	C593.105896,113.638855 594.380798,114.150764 595.663330,115.041061 
z"/>
<path fill="#3C1C14" opacity="1.000000" stroke="none" 
	d="
M651.945190,163.638550 
	C650.855042,163.440063 649.562927,162.972870 648.163025,162.154892 
	C649.284546,162.326019 650.513916,162.847946 651.945190,163.638550 
z"/>
<path fill="#3E1F16" opacity="1.000000" stroke="none" 
	d="
M686.078613,197.933014 
	C685.399231,197.147522 684.719849,196.362015 684.075317,195.202911 
	C684.419434,195.145981 684.728882,195.462601 685.341797,196.235580 
	C685.789795,197.105637 685.934204,197.519333 686.078613,197.933014 
z"/>
<path fill="#3C1C14" opacity="1.000000" stroke="none" 
	d="
M420.660858,112.991722 
	C420.145081,113.515953 419.312561,114.081665 418.271362,114.407944 
	C418.823151,113.790077 419.583649,113.411644 420.660858,112.991722 
z"/>
<path fill="#9DDEEF" opacity="1.000000" stroke="none" 
	d="
M598.682739,117.031097 
	C597.815918,116.911095 596.938293,116.422211 595.884155,115.692810 
	C596.695740,115.855598 597.683838,116.258904 598.682739,117.031097 
z"/>
<path fill="#3E1F16" opacity="1.000000" stroke="none" 
	d="
M684.085327,194.598999 
	C683.464111,194.128311 682.752502,193.355972 682.081055,192.205139 
	C682.745789,192.650208 683.370361,193.473770 684.085327,194.598999 
z"/>
<path fill="#9DDEEF" opacity="1.000000" stroke="none" 
	d="
M601.639709,119.051834 
	C600.759216,118.924202 599.892578,118.426926 598.855591,117.682144 
	C599.674622,117.850502 600.664124,118.266357 601.639709,119.051834 
z"/>
<path fill="#9DDEEF" opacity="1.000000" stroke="none" 
	d="
M603.863770,120.845032 
	C603.226501,120.800484 602.592285,120.389641 601.808960,119.745926 
	C602.395508,119.834938 603.131104,120.156830 603.863770,120.845032 
z"/>
<path fill="#3E1F16" opacity="1.000000" stroke="none" 
	d="
M682.108887,191.605652 
	C681.626953,191.376389 681.061890,190.874481 680.731812,190.194489 
	C681.319824,190.455292 681.672791,190.894165 682.108887,191.605652 
z"/>
<path fill="#9DDEEF" opacity="1.000000" stroke="none" 
	d="
M218.751816,706.071716 
	C218.329376,706.539856 217.550308,706.977600 216.437454,707.317627 
	C216.867508,706.827026 217.631348,706.434204 218.751816,706.071716 
z"/>
<path fill="#9DDEEF" opacity="1.000000" stroke="none" 
	d="
M572.951782,104.068405 
	C573.848450,104.195534 574.717712,104.350563 575.710205,104.851974 
	C575.833435,105.198372 575.727905,105.320984 575.414001,105.267822 
	C574.357605,104.861412 573.615112,104.508171 572.872620,104.154922 
	C572.872620,104.154922 572.924377,104.096291 572.951782,104.068405 
z"/>
<path fill="#9DDEEF" opacity="1.000000" stroke="none" 
	d="
M575.887451,105.138199 
	C576.514465,105.224480 577.087402,105.370934 577.795044,105.790085 
	C577.929626,106.062775 577.892639,106.120735 577.576477,106.116684 
	C576.749512,105.848740 576.238708,105.584854 575.727905,105.320976 
	C575.727905,105.320984 575.833435,105.198372 575.887451,105.138199 
z"/>
<path fill="#9DDEEF" opacity="1.000000" stroke="none" 
	d="
M210.761139,710.089844 
	C210.563889,710.452087 210.015152,710.818970 209.121124,711.241638 
	C209.320450,710.896423 209.865051,710.495483 210.761139,710.089844 
z"/>
<path fill="#9DDEEF" opacity="1.000000" stroke="none" 
	d="
M212.794556,709.083252 
	C212.625534,709.411072 212.136093,709.737610 211.343750,710.105835 
	C211.518600,709.792297 211.996353,709.437134 212.794556,709.083252 
z"/>
<path fill="#9DDEEF" opacity="1.000000" stroke="none" 
	d="
M214.788330,708.080566 
	C214.620972,708.412231 214.133057,708.745117 213.341797,709.115112 
	C213.514908,708.795349 213.991348,708.438599 214.788330,708.080566 
z"/>
<path fill="#9FE1F1" opacity="1.000000" stroke="none" 
	d="
M691.940491,208.068665 
	C692.288086,208.522110 692.610657,208.991287 692.912964,209.769379 
	C692.892700,210.078293 692.806274,210.158005 692.538940,210.000061 
	C692.137878,209.268951 692.004211,208.695770 691.870544,208.122589 
	C691.870544,208.122589 691.915527,208.084412 691.940491,208.068665 
z"/>
<path fill="#9FE1F1" opacity="1.000000" stroke="none" 
	d="
M686.907104,198.087143 
	C687.253296,198.524887 687.599426,198.962616 687.968750,199.700623 
	C687.991943,200.000885 687.945923,200.049225 687.728760,200.004593 
	C687.511536,199.959961 687.135559,199.796783 687.135559,199.796783 
	C687.135559,199.796783 687.085327,199.916992 687.088074,199.635437 
	C686.990784,198.972687 686.890808,198.591476 686.820435,198.180054 
	C686.850159,198.149857 686.907104,198.087143 686.907104,198.087143 
z"/>
<path fill="#9FE1F1" opacity="1.000000" stroke="none" 
	d="
M320.028137,286.268494 
	C320.024109,285.983215 320.422211,285.991882 320.621307,285.989319 
	C320.866791,286.426880 320.913147,286.867004 320.901611,287.635712 
	C320.573181,287.494110 320.302673,287.023956 320.028137,286.268494 
z"/>
<path fill="#9DDEEF" opacity="1.000000" stroke="none" 
	d="
M605.054260,121.910675 
	C604.526917,122.021538 604.238342,121.867554 603.903687,121.378052 
	C604.278015,121.352493 604.756531,121.553596 605.054260,121.910675 
z"/>
<path fill="#9FE1F1" opacity="1.000000" stroke="none" 
	d="
M686.052979,197.939697 
	C685.934204,197.519333 685.789795,197.105637 685.512878,196.387253 
	C685.881958,196.511444 686.383484,196.940323 686.896118,197.728180 
	C686.907104,198.087143 686.850159,198.149857 686.626953,198.124283 
	C686.403809,198.098709 686.053345,197.900330 686.053345,197.900330 
	C686.053345,197.900330 686.027344,197.946365 686.052979,197.939697 
z"/>
<path fill="#48342B" opacity="1.000000" stroke="none" 
	d="
M324.263062,236.256653 
	C324.612762,236.152252 324.785522,236.353271 324.944885,236.809631 
	C325.003479,237.003143 324.609100,237.011780 324.412048,237.019714 
	C324.196014,236.851852 324.177032,236.676041 324.263062,236.256653 
z"/>
<path fill="#9DDEEF" opacity="1.000000" stroke="none" 
	d="
M215.892365,707.191284 
	C215.979462,707.415588 215.809814,707.717041 215.346252,708.077576 
	C215.246765,707.847229 215.441193,707.557922 215.892365,707.191284 
z"/>
<path fill="#F1D29A" opacity="1.000000" stroke="none" 
	d="
M517.029724,237.055344 
	C521.069519,236.711594 525.109253,236.367844 530.002625,235.961884 
	C541.551941,233.880753 552.247742,231.861816 562.943481,229.842896 
	C568.717529,228.420364 574.491577,226.997818 580.624634,225.493439 
	C577.484497,226.916122 574.117249,229.107101 570.463806,229.809540 
	C551.893616,233.380005 533.260925,236.632736 514.621948,239.832626 
	C510.418610,240.554230 506.102875,240.620911 501.417358,240.686340 
	C500.990265,239.986389 500.984680,239.589172 501.421600,239.120667 
	C506.919312,238.384689 511.974518,237.720016 517.029724,237.055344 
z"/>
<path fill="#2D1C1A" opacity="1.000000" stroke="none" 
	d="
M349.666565,380.588318 
	C351.107330,381.635834 352.580597,383.044952 353.607208,384.026886 
	C355.202606,362.834229 356.832275,341.186493 358.763062,319.273438 
	C358.732910,324.067230 358.401611,329.126343 358.007263,335.011566 
	C357.682892,354.555878 357.421570,373.274109 357.160217,391.992340 
	C356.549896,391.822662 355.603851,391.843903 355.381836,391.453430 
	C353.414642,387.993744 351.575775,384.461060 349.666565,380.588318 
z"/>
<path fill="#261717" opacity="1.000000" stroke="none" 
	d="
M659.157532,327.029236 
	C659.769287,327.857819 660.841492,328.646210 660.917847,329.521454 
	C661.405212,335.111603 661.773560,340.716949 661.992188,346.324677 
	C662.391602,356.571198 662.689026,366.822083 662.954834,377.073090 
	C663.001343,378.868286 662.684753,380.672974 662.228210,382.761414 
	C661.597290,376.990845 661.274048,370.932068 660.910095,364.044983 
	C660.814148,362.480835 660.758911,361.744965 660.781738,360.577789 
	C660.650513,357.557526 660.441284,354.968567 660.380371,351.967377 
	C660.028442,346.342499 659.528259,341.129852 659.028015,335.917236 
	C659.028015,335.917236 658.978333,335.437805 658.971436,334.768982 
	C659.028870,331.743195 659.093201,329.386200 659.157532,327.029236 
z"/>
<path fill="#E4C895" opacity="1.000000" stroke="none" 
	d="
M357.413757,391.666382 
	C357.421570,373.274109 357.682892,354.555878 358.042297,335.422516 
	C358.423920,336.921387 358.979095,338.839722 358.948425,340.748688 
	C358.687958,356.964539 358.324066,373.178772 357.973969,389.393127 
	C357.959900,390.044128 357.773438,390.691437 357.413757,391.666382 
z"/>
<path fill="#F9DBA1" opacity="1.000000" stroke="none" 
	d="
M446.968262,240.902832 
	C448.701111,240.951004 450.433929,240.999161 452.991241,241.015060 
	C454.879791,241.042130 455.943909,241.101456 457.005798,241.369263 
	C457.003632,241.577744 457.002441,241.994736 457.002441,241.994736 
	C438.540161,243.521317 419.858612,243.026230 401.291687,247.883743 
	C400.814819,247.782654 400.688690,247.632004 400.901855,247.423401 
	C401.776733,246.827927 402.438385,246.441040 403.100037,246.054138 
	C403.100037,246.054138 403.028809,246.024826 403.445801,246.031891 
	C418.231293,244.326920 432.599762,242.614883 446.968262,240.902832 
z"/>
<path fill="#2D1C1A" opacity="1.000000" stroke="none" 
	d="
M649.798828,283.181519 
	C650.425110,283.649048 651.487793,284.021362 651.613586,284.598022 
	C654.473877,297.712097 657.237610,310.847290 659.982727,323.986206 
	C660.073486,324.420441 659.781555,324.934631 659.304443,325.286713 
	C658.610046,322.744812 658.442139,320.291290 657.910767,317.919159 
	C657.080261,314.211700 656.003601,310.559448 655.031250,306.883789 
	C655.031250,306.883789 655.005310,306.443268 655.163086,305.825073 
	C653.480164,297.865082 651.639526,290.523315 649.798828,283.181519 
z"/>
<path fill="#FDE9AC" opacity="1.000000" stroke="none" 
	d="
M457.470825,241.996613 
	C457.002441,241.994736 457.003632,241.577744 457.462769,241.302246 
	C462.930878,240.626678 467.939850,240.226593 472.948792,239.826492 
	C477.315399,239.896439 481.681976,239.966370 486.507446,240.099701 
	C485.491730,240.772049 484.027710,241.875992 482.540833,241.907700 
	C474.343384,242.082565 466.140320,241.995621 457.470825,241.996613 
z"/>
<path fill="#2D1C1A" opacity="1.000000" stroke="none" 
	d="
M516.783691,236.770264 
	C511.974518,237.720016 506.919312,238.384689 501.007141,239.066742 
	C496.779938,239.440063 493.409698,239.796005 490.039490,240.151962 
	C489.875061,240.084259 489.710632,240.016571 489.290863,239.871658 
	C489.877594,239.205505 490.685303,238.164917 491.566986,238.097900 
	C499.883362,237.465622 508.212372,236.999344 516.783691,236.770264 
z"/>
<path fill="#F1D29A" opacity="1.000000" stroke="none" 
	d="
M649.816833,283.147888 
	C651.639526,290.523315 653.480164,297.865082 655.143127,305.605316 
	C652.440186,297.161743 649.914978,288.319733 647.771973,279.459656 
	C648.381714,279.696838 648.609314,279.952087 648.836853,280.207306 
	C648.836853,280.207306 648.877869,280.065369 648.839661,280.405304 
	C649.170044,281.542969 649.538574,282.340698 649.907166,283.138428 
	C649.907166,283.138428 649.834839,283.114258 649.816833,283.147888 
z"/>
<path fill="#F9DBA1" opacity="1.000000" stroke="none" 
	d="
M655.017944,307.325256 
	C656.003601,310.559448 657.080261,314.211700 657.910767,317.919159 
	C658.442139,320.291290 658.610046,322.744812 659.023315,325.572266 
	C659.071106,326.159210 659.036560,326.335785 659.079712,326.770782 
	C659.093201,329.386200 659.028870,331.743195 658.901367,334.538391 
	C657.560425,325.906677 656.282593,316.836700 655.017944,307.325256 
z"/>
<path fill="#FDE9AC" opacity="1.000000" stroke="none" 
	d="
M659.018738,336.391022 
	C659.528259,341.129852 660.028442,346.342499 660.291382,352.433289 
	C660.270691,355.877380 660.487183,358.443237 660.703735,361.009125 
	C660.758911,361.744965 660.814148,362.480835 660.814575,363.582214 
	C660.179688,362.453949 659.133057,360.971039 659.098022,359.464569 
	C658.922668,351.934692 659.012756,344.398682 659.018738,336.391022 
z"/>
<path fill="#2D1C1A" opacity="1.000000" stroke="none" 
	d="
M363.364807,297.936401 
	C364.778748,292.451996 366.509705,286.781677 368.596069,281.061157 
	C367.194916,286.590759 365.438416,292.170624 363.364807,297.936401 
z"/>
<path fill="#2D1C1A" opacity="1.000000" stroke="none" 
	d="
M369.365509,280.060608 
	C370.578888,276.934052 372.086884,273.615356 373.957458,270.247864 
	C372.766754,273.422180 371.213440,276.645325 369.365509,280.060608 
z"/>
<path fill="#FDE9AC" opacity="1.000000" stroke="none" 
	d="
M490.347443,240.412659 
	C493.409698,239.796005 496.779938,239.440063 500.564636,239.138031 
	C500.984680,239.589172 500.990265,239.986389 500.988831,240.681061 
	C497.539673,240.876801 494.097534,240.775085 490.347443,240.412659 
z"/>
<path fill="#F9DBA1" opacity="1.000000" stroke="none" 
	d="
M393.112518,251.815353 
	C393.150940,251.396881 393.564331,251.031509 394.401184,250.368073 
	C395.273010,249.750824 395.721344,249.431671 396.169678,249.112518 
	C396.169678,249.112503 396.063843,249.087616 396.358582,249.091553 
	C396.871094,248.821213 397.088837,248.546951 397.306580,248.272705 
	C397.306580,248.272705 397.179657,248.402496 397.599121,248.424515 
	C398.908630,248.175034 399.798645,247.903519 400.688690,247.632004 
	C400.688690,247.632004 400.814819,247.782654 400.875244,247.858307 
	C398.452972,249.245468 395.970245,250.556976 393.112518,251.815353 
z"/>
<path fill="#2D1C1A" opacity="1.000000" stroke="none" 
	d="
M375.373260,269.006653 
	C376.252563,267.242065 377.398102,265.310699 378.804016,263.642700 
	C378.911865,264.237244 378.759369,264.568390 378.606873,264.899506 
	C377.617737,266.212952 376.628632,267.526398 375.373260,269.006653 
z"/>
<path fill="#F9DBA1" opacity="1.000000" stroke="none" 
	d="
M378.955200,264.825317 
	C378.759369,264.568390 378.911865,264.237244 379.145813,263.644897 
	C379.227264,263.383728 379.213226,263.306061 379.446289,263.193604 
	C379.864594,262.750610 380.049896,262.420105 380.235199,262.089600 
	C380.235199,262.089600 380.076996,262.062592 380.344971,262.037781 
	C380.812164,261.694214 381.011414,261.375458 381.210632,261.056702 
	C381.618011,260.731140 382.025360,260.405609 382.678772,259.975525 
	C381.717743,261.497681 380.510651,263.124390 378.955200,264.825317 
z"/>
<path fill="#F9DBA1" opacity="1.000000" stroke="none" 
	d="
M386.969269,256.576721 
	C387.849365,255.374435 389.078156,254.232513 390.623779,252.987350 
	C389.733063,254.135101 388.525513,255.386093 386.969269,256.576721 
z"/>
<path fill="#2D1C1A" opacity="1.000000" stroke="none" 
	d="
M683.262695,362.848694 
	C683.820312,361.727631 684.627625,360.410248 685.789429,359.084778 
	C685.266785,360.268555 684.389648,361.460449 683.262695,362.848694 
z"/>
<path fill="#2D1C1A" opacity="1.000000" stroke="none" 
	d="
M361.899536,306.613220 
	C361.878845,305.690643 361.945068,304.448273 362.316345,303.130981 
	C362.409729,304.135193 362.198120,305.214264 361.899536,306.613220 
z"/>
<path fill="#2D1C1A" opacity="1.000000" stroke="none" 
	d="
M694.975342,350.965240 
	C695.022156,351.187744 695.068909,351.410217 695.152466,351.973694 
	C694.457886,352.700562 693.726562,353.086456 692.691895,353.473175 
	C692.806213,352.825684 693.223938,352.177399 694.060913,351.259644 
	C694.480103,350.990143 694.975342,350.965240 694.975342,350.965240 
z"/>
<path fill="#2D1C1A" opacity="1.000000" stroke="none" 
	d="
M681.134644,365.757446 
	C681.159790,365.326965 681.384338,364.684418 681.914673,364.052368 
	C681.925049,364.557007 681.629578,365.051178 681.134644,365.757446 
z"/>
<path fill="#2D1C1A" opacity="1.000000" stroke="none" 
	d="
M648.883545,279.865936 
	C648.609314,279.952087 648.381714,279.696838 648.022827,279.211548 
	C647.783508,278.501617 647.675659,278.021759 647.505249,277.298340 
	C647.938538,277.877991 648.434326,278.701294 648.883545,279.865936 
z"/>
<path fill="#2D1C1A" opacity="1.000000" stroke="none" 
	d="
M687.311401,357.963501 
	C687.513916,357.437073 687.976746,356.770233 688.781677,356.082886 
	C688.606384,356.649323 688.089050,357.236237 687.311401,357.963501 
z"/>
<path fill="#2D1C1A" opacity="1.000000" stroke="none" 
	d="
M362.937164,301.584106 
	C362.702393,301.081482 362.566864,300.220795 362.679962,299.195282 
	C362.964539,299.762299 363.000458,300.494171 362.937164,301.584106 
z"/>
<path fill="#2D1C1A" opacity="1.000000" stroke="none" 
	d="
M348.606171,378.536194 
	C349.035706,378.661102 349.455078,379.100525 349.806122,379.881042 
	C349.357178,379.764984 348.976593,379.307831 348.606171,378.536194 
z"/>
<path fill="#F9DBA1" opacity="1.000000" stroke="none" 
	d="
M391.218018,252.930374 
	C391.347870,252.563385 391.806335,252.188324 392.565735,251.753510 
	C392.426666,252.103271 391.986664,252.512802 391.218018,252.930374 
z"/>
<path fill="#F9DBA1" opacity="1.000000" stroke="none" 
	d="
M385.182861,257.906494 
	C385.221832,257.484528 385.596954,257.065552 386.242126,256.599823 
	C386.181091,257.005188 385.850037,257.457336 385.182861,257.906494 
z"/>
<path fill="#F9DBA1" opacity="1.000000" stroke="none" 
	d="
M383.121582,259.860931 
	C383.059204,259.658783 383.250092,259.356079 383.700134,258.960480 
	C383.764465,259.165192 383.569672,259.462769 383.121582,259.860931 
z"/>
<path fill="#F9DBA1" opacity="1.000000" stroke="none" 
	d="
M384.122070,258.856445 
	C384.053955,258.651642 384.240753,258.343414 384.686218,257.936737 
	C384.755615,258.143219 384.566315,258.448120 384.122070,258.856445 
z"/>
<path fill="#2D1C1A" opacity="1.000000" stroke="none" 
	d="
M686.287476,359.039001 
	C686.226685,358.843842 686.417847,358.543182 686.858398,358.133911 
	C686.918396,358.328064 686.728882,358.630737 686.287476,359.039001 
z"/>
<path fill="#2D1C1A" opacity="1.000000" stroke="none" 
	d="
M374.460999,270.200348 
	C374.327820,269.912109 374.488770,269.578918 374.924347,269.153625 
	C375.051025,269.426178 374.903046,269.790802 374.460999,270.200348 
z"/>
<path fill="#2D1C1A" opacity="1.000000" stroke="none" 
	d="
M359.248108,318.966797 
	C359.109100,318.774109 359.249786,318.523682 359.626007,318.183319 
	C359.933929,318.431793 359.822693,318.703705 359.248108,318.966797 
z"/>
<path fill="#2D1C1A" opacity="1.000000" stroke="none" 
	d="
M691.474243,354.233856 
	C691.334351,353.953827 691.505127,353.615906 691.969604,353.230164 
	C692.103821,353.513519 691.944336,353.844727 691.474243,354.233856 
z"/>
<path fill="#2D1C1A" opacity="1.000000" stroke="none" 
	d="
M690.362000,355.132690 
	C690.277771,354.901276 690.474243,354.582336 690.954529,354.195953 
	C691.039795,354.434052 690.841248,354.739624 690.362000,355.132690 
z"/>
<path fill="#2D1C1A" opacity="1.000000" stroke="none" 
	d="
M689.300781,356.039978 
	C689.242126,355.829926 689.449402,355.532684 689.923462,355.150421 
	C689.982361,355.361206 689.774475,355.657013 689.300781,356.039978 
z"/>
<path fill="#2D1C1A" opacity="1.000000" stroke="none" 
	d="
M347.764771,377.029968 
	C348.011383,376.941376 348.348480,377.221558 348.817078,377.798004 
	C348.584167,377.862427 348.219696,377.630615 347.764771,377.029968 
z"/>
<path fill="#3E1F16" opacity="1.000000" stroke="none" 
	d="
M467.998077,98.151314 
	C489.715942,93.899620 511.573547,92.745201 533.823975,95.539551 
	C531.686401,95.930199 529.318237,95.963348 526.950562,96.018463 
	C512.671265,96.350830 498.386719,96.547302 484.115906,97.099243 
	C479.019501,97.296349 473.956543,98.357956 468.439697,98.806061 
	C468.001129,98.587143 467.998077,98.151314 467.998077,98.151314 
z"/>
<path fill="#3E1F16" opacity="1.000000" stroke="none" 
	d="
M701.021606,248.333862 
	C701.595215,250.681030 702.627563,253.508148 702.612549,256.329712 
	C702.544006,269.213287 702.188110,282.095520 701.895386,294.977295 
	C701.885925,295.393250 701.442627,295.799286 701.007690,296.580078 
	C700.870361,294.065430 700.971069,291.180725 700.975952,288.295868 
	C700.998047,275.134369 700.993225,261.972809 701.021606,248.333862 
z"/>
<path fill="#2D1C1A" opacity="1.000000" stroke="none" 
	d="
M446.670837,240.614700 
	C432.599762,242.614883 418.231293,244.326920 403.446136,246.070404 
	C403.880768,245.415680 404.647461,244.292831 405.596039,244.109100 
	C419.058167,241.501678 432.547577,239.050842 446.670837,240.614700 
z"/>
<path fill="#3E1F16" opacity="1.000000" stroke="none" 
	d="
M575.414001,105.267815 
	C576.238708,105.584854 576.749512,105.848740 577.554810,106.143425 
	C577.967590,106.513306 578.195740,106.743500 578.752808,106.985001 
	C577.304443,106.900696 575.573242,106.916183 573.980042,106.455055 
	C565.355347,103.958817 556.764832,101.344666 548.084045,98.401932 
	C552.307556,98.778793 556.609558,99.524895 561.301025,100.331497 
	C563.473511,100.993149 565.256592,101.594292 567.391724,102.254776 
	C569.222595,102.908112 570.701233,103.502106 572.526245,104.125519 
	C573.615112,104.508171 574.357605,104.861412 575.414001,105.267815 
z"/>
<path fill="#261717" opacity="1.000000" stroke="none" 
	d="
M562.675537,229.576447 
	C552.247742,231.861816 541.551941,233.880753 530.449585,235.842224 
	C532.339600,235.036835 534.586914,234.016708 536.941772,233.589920 
	C545.410767,232.054993 553.916077,230.720337 562.675537,229.576447 
z"/>
<path fill="#3E1F16" opacity="1.000000" stroke="none" 
	d="
M693.276367,214.195770 
	C695.703735,221.928818 697.989075,230.051529 700.127197,238.583878 
	C697.698059,230.857483 695.416199,222.721451 693.276367,214.195770 
z"/>
<path fill="#3C1C14" opacity="1.000000" stroke="none" 
	d="
M700.521912,304.242981 
	C699.808411,313.255829 698.771057,322.471191 697.385742,331.903870 
	C698.091187,322.895996 699.144592,313.670746 700.521912,304.242981 
z"/>
<path fill="#2D1C1A" opacity="1.000000" stroke="none" 
	d="
M472.633179,239.564606 
	C467.939850,240.226593 462.930878,240.626678 457.464966,241.093781 
	C455.943909,241.101456 454.879791,241.042130 453.417725,240.933640 
	C454.005890,240.266861 454.983521,239.133804 455.979523,239.117371 
	C461.423065,239.027679 466.871094,239.212341 472.633179,239.564606 
z"/>
<path fill="#3C1C14" opacity="1.000000" stroke="none" 
	d="
M444.284973,104.389290 
	C449.736450,102.713600 455.436432,101.304306 461.557861,99.877274 
	C456.164032,101.458252 450.348755,103.056969 444.284973,104.389290 
z"/>
<path fill="#3C1C14" opacity="1.000000" stroke="none" 
	d="
M467.621246,98.101685 
	C467.998077,98.151314 468.001129,98.587143 468.002991,98.805351 
	C466.232239,99.346741 464.459595,99.669922 462.287292,99.962936 
	C463.673248,99.305862 465.458832,98.678963 467.621246,98.101685 
z"/>
<path fill="#3E1F16" opacity="1.000000" stroke="none" 
	d="
M691.679443,208.054993 
	C692.004211,208.695770 692.137878,209.268951 692.494019,210.037964 
	C692.983398,211.106583 693.250305,211.979370 693.570496,213.184082 
	C692.765625,211.881226 691.907471,210.246460 691.087769,208.208267 
	C691.126221,207.804840 691.488281,207.987381 691.679443,208.054993 
z"/>
<path fill="#2D1C1A" opacity="1.000000" stroke="none" 
	d="
M400.901855,247.423401 
	C399.798645,247.903519 398.908630,248.175034 397.675842,248.473022 
	C398.992676,247.674225 400.652252,246.848938 402.705933,246.038910 
	C402.438385,246.441040 401.776733,246.827927 400.901855,247.423401 
z"/>
<path fill="#3C1C14" opacity="1.000000" stroke="none" 
	d="
M429.147675,109.843613 
	C429.422943,109.390549 430.094849,109.017967 430.956177,108.413452 
	C431.829742,108.061348 432.513947,107.941185 433.542297,107.764709 
	C432.439056,108.446960 430.991669,109.185524 429.147675,109.843613 
z"/>
<path fill="#3E1F16" opacity="1.000000" stroke="none" 
	d="
M700.024780,240.270630 
	C700.360962,241.939743 700.675476,244.032089 700.930725,246.544388 
	C700.581970,244.874191 700.292542,242.784027 700.024780,240.270630 
z"/>
<path fill="#3C1C14" opacity="1.000000" stroke="none" 
	d="
M696.598083,333.317932 
	C696.827332,334.931793 696.789185,336.824188 696.394653,338.918701 
	C696.135681,337.279388 696.233215,335.437897 696.598083,333.317932 
z"/>
<path fill="#3C1C14" opacity="1.000000" stroke="none" 
	d="
M695.692505,341.271118 
	C695.896118,342.899017 695.809082,344.791412 695.381470,346.912598 
	C695.161316,345.272766 695.281616,343.404205 695.692505,341.271118 
z"/>
<path fill="#3C1C14" opacity="1.000000" stroke="none" 
	d="
M421.800476,112.940041 
	C422.667511,112.247017 423.938965,111.574387 425.573547,110.849258 
	C424.692749,111.517990 423.448822,112.239212 421.800476,112.940041 
z"/>
<path fill="#3C1C14" opacity="1.000000" stroke="none" 
	d="
M434.227997,107.903503 
	C434.854797,107.366699 435.883270,106.877785 437.251129,106.386070 
	C436.603546,106.905983 435.616638,107.428688 434.227997,107.903503 
z"/>
<path fill="#3C1C14" opacity="1.000000" stroke="none" 
	d="
M426.215698,110.920090 
	C426.628998,110.506630 427.415497,110.116989 428.538513,109.681122 
	C428.113007,110.071236 427.350952,110.507576 426.215698,110.920090 
z"/>
<path fill="#3E1F16" opacity="1.000000" stroke="none" 
	d="
M689.110657,204.185394 
	C689.599609,204.497131 690.043274,205.192398 690.548462,206.188934 
	C690.095093,205.849792 689.580261,205.209351 689.110657,204.185394 
z"/>
<path fill="#2D1C1A" opacity="1.000000" stroke="none" 
	d="
M395.861938,249.086639 
	C395.721344,249.431671 395.273010,249.750824 394.546326,250.123688 
	C394.696747,249.805161 395.125458,249.432953 395.861938,249.086639 
z"/>
<path fill="#3C1C14" opacity="1.000000" stroke="none" 
	d="
M440.197205,105.857407 
	C440.622986,105.416878 441.439728,105.037666 442.594055,104.549835 
	C442.150452,104.933716 441.369324,105.426216 440.197205,105.857407 
z"/>
<path fill="#2D1C1A" opacity="1.000000" stroke="none" 
	d="
M649.924927,282.769287 
	C649.538574,282.340698 649.170044,281.542969 648.765869,280.404419 
	C649.134338,280.842438 649.538513,281.621307 649.924927,282.769287 
z"/>
<path fill="#3C1C14" opacity="1.000000" stroke="none" 
	d="
M438.119598,106.688660 
	C438.266174,106.263596 438.740417,105.964745 439.515503,105.624306 
	C439.359985,105.993431 438.903595,106.404144 438.119598,106.688660 
z"/>
<path fill="#3E1F16" opacity="1.000000" stroke="none" 
	d="
M688.127563,202.132523 
	C688.482849,202.295258 688.818054,202.796875 689.207825,203.607391 
	C688.877380,203.434662 688.492432,202.953033 688.127563,202.132523 
z"/>
<path fill="#3E1F16" opacity="1.000000" stroke="none" 
	d="
M687.117554,200.135071 
	C687.135559,199.796783 687.511536,199.959961 687.704895,200.027924 
	C687.978760,200.500793 688.059326,200.905685 688.196533,201.616852 
	C687.868652,201.439865 687.484131,200.956619 687.117554,200.135071 
z"/>
<path fill="#3C1C14" opacity="1.000000" stroke="none" 
	d="
M695.088623,350.631348 
	C694.975342,350.965240 694.480103,350.990143 694.232178,350.998138 
	C694.199402,350.412048 694.414612,349.817963 694.913940,349.064941 
	C695.199280,349.369812 695.200562,349.833618 695.088623,350.631348 
z"/>
<path fill="#3E1F16" opacity="1.000000" stroke="none" 
	d="
M686.071716,198.223938 
	C686.053345,197.900330 686.403809,198.098709 686.597290,198.154480 
	C686.890808,198.591476 686.990784,198.972687 687.152588,199.644547 
	C686.839600,199.472641 686.464844,199.010086 686.071716,198.223938 
z"/>
<path fill="#3E1F16" opacity="1.000000" stroke="none" 
	d="
M546.173096,97.354095 
	C546.326477,97.284454 546.610474,97.399925 546.992615,97.746429 
	C546.796326,97.889008 546.533936,97.742928 546.173096,97.354095 
z"/>
<path fill="#3E1F16" opacity="1.000000" stroke="none" 
	d="
M690.364014,206.972488 
	C690.636292,206.918228 690.872925,207.148682 691.152893,207.652130 
	C690.906921,207.702484 690.617615,207.479828 690.364014,206.972488 
z"/>
<path fill="#2D1C1A" opacity="1.000000" stroke="none" 
	d="
M397.014709,248.280182 
	C397.088837,248.546951 396.871094,248.821213 396.361816,249.145813 
	C396.287781,248.893311 396.505280,248.590485 397.014709,248.280182 
z"/>
<path fill="#2D1C1A" opacity="1.000000" stroke="none" 
	d="
M380.938141,261.156250 
	C381.011414,261.375458 380.812164,261.694214 380.345520,262.118042 
	C380.273956,261.900665 380.469788,261.578247 380.938141,261.156250 
z"/>
<path fill="#2D1C1A" opacity="1.000000" stroke="none" 
	d="
M379.952698,262.178741 
	C380.049896,262.420105 379.864594,262.750610 379.408386,263.182617 
	C379.315002,262.945374 379.492584,262.606628 379.952698,262.178741 
z"/>
<path fill="#F9C292" opacity="1.000000" stroke="none" 
	d="
M660.781738,360.577789 
	C660.487183,358.443237 660.270691,355.877380 660.143127,352.845581 
	C660.441284,354.968567 660.650513,357.557526 660.781738,360.577789 
z"/>
</svg>